# xmcd CD database file
#
# Track frame offsets:
#	150
#	21077
#	41227
#	57400
#	77975
#	107420
#	126620
#	164217
#	223522
#
# Disc length: 3164 seconds
#
# Revision: 1
# Processed by: cddbd v1.5PL3 Copyright (c) Steve Scherf et al.
# Submitted via: CDex 1.50
#
DISCID=860c5a09
DTITLE=Gary Moore - Back To The Blues (Live Montreux Blues Festival July 7th 1990) Disc 1
DYEAR=1990
DGENRE=Blues
TTITLE0=Oh Pretty Woman
TTITLE1=Walking By Myself
TTITLE2=The Stumble
TTITLE3=All Your Love
TTITLE4=Midnight Blues
TTITLE5=You Don't Love Me
TTITLE6=Still Got The Blues
TTITLE7=Texas Strut
TTITLE8=Moving On
EXTD=YEAR: 1990
EXTT0=
EXTT1=
EXTT2=
EXTT3=
EXTT4=
EXTT5=
EXTT6=
EXTT7=
EXTT8=
PLAYORDER=
